# xmcd
#
# Track frame offsets: 
#        150
#        20096
#        36737
#        58597
#        83733
#        99002
#        118284
#        134971
#        152891
#        178903
#        196944
#        214948
#        260908
#        280628
#        302520
#        319962
#
# Disc length: 4520 seconds
#
# Revision: 0
# Processed by: cddbd v1.5.2PL0 Copyright (c) Steve Scherf et al.
# Submitted via: ExactAudioCopy v1.3
#
DISCID=f711a610
DTITLE=Various Artist - Blues Sur Seine
DYEAR=2018
DGENRE=Blues
TTITLE0=Keziah Jones - Beautiful Emily
TTITLE1=Deva Mahal - Snake
TTITLE2=Flyin' Saucers Gumbo Special - What Doin Ya First
TTITLE3=Electric Blues Duo - Back Home
TTITLE4=Lisa Simone - Ode to Jo
TTITLE5=Hannah Williams and The Affirmations - Late Night and Heartbreak
TTITLE6=Kimberose - I'm Sorry
TTITLE7=Sugary Rayford - Stuck in a Buck
TTITLE8=Cotton Belly's - Missi
TTITLE9=Theo Lawrence and The Hearts - All Along
TTITLE10=The Buttershakers - Sweat Reward
TTITLE11=Rhoda Scott - So Good to Me, Hold On (live version)
TTITLE12=Alela Diane - Ether and Wood
TTITLE13=Molly Johnson - Diamond in My Hand
TTITLE14=Mr White - Roxana
TTITLE15=Slave of Joy - Make Me Shy
EXTD=
EXTT0=
EXTT1=
EXTT2=
EXTT3=
EXTT4=
EXTT5=
EXTT6=
EXTT7=
EXTT8=
EXTT9=
EXTT10=
EXTT11=
EXTT12=
EXTT13=
EXTT14=
EXTT15=
PLAYORDER=
